<?xml version="1.0" encoding="UTF-8"?>
<svg id="Layer_2" data-name="Layer 2" xmlns="http://www.w3.org/2000/svg" viewBox="0 0 98.21 15.74">
  <defs>
    <style>
      .cls-1 {
        fill: #231f20;
      }
    </style>
  </defs>
  <g id="Layer_1-2" data-name="Layer 1">
    <g>
      <path class="cls-1" d="M10.56,7.46h4.41v6.36c-1.83,1.25-4.34,1.91-6.56,1.91C3.55,15.74,0,12.49,0,7.87S3.55,0,8.51,0c2.97,0,5.35,1.03,6.88,2.9l-3.25,2.86c-.95-1.1-2.04-1.66-3.38-1.66-2.24,0-3.66,1.44-3.66,3.76s1.42,3.76,3.59,3.76c.62,0,1.23-.11,1.85-.37v-3.81Z"/>
      <path class="cls-1" d="M17.14,.34h5.07V15.39h-5.07V.34Z"/>
      <path class="cls-1" d="M27.93,4.28h-4.41V.34h13.89v3.93h-4.41V15.39h-5.07V4.28Z"/>
      <path class="cls-1" d="M44.59,7.98l-3.38,3.46v3.96h-1.1V.34h1.1V10.02L50.61,.34h1.33l-6.62,6.84,7.07,8.21h-1.33l-6.47-7.42Z"/>
      <path class="cls-1" d="M64.72,8.84v6.56h-1.08v-6.47c0-2.54-1.35-3.87-3.63-3.87-2.64,0-4.26,1.7-4.26,4.36v5.98h-1.07V4.17h1.03v2.43c.75-1.57,2.32-2.52,4.45-2.52,2.73,0,4.56,1.61,4.56,4.75Z"/>
      <path class="cls-1" d="M67.94,9.78c0-3.33,2.39-5.7,5.61-5.7s5.61,2.36,5.61,5.7-2.39,5.7-5.61,5.7-5.61-2.36-5.61-5.7Zm10.13,0c0-2.82-1.93-4.73-4.51-4.73s-4.51,1.91-4.51,4.73,1.93,4.73,4.51,4.73,4.51-1.91,4.51-4.73Z"/>
      <path class="cls-1" d="M98.21,4.17l-4.26,11.22h-1.01l-3.78-9.74-3.81,9.74h-.99l-4.26-11.22h1.03l3.74,10.02,3.83-10.02h.92l3.81,10,3.78-10h.99Z"/>
    </g>
  </g>
</svg>